#Comment line ignore any data following # character 
#Hierarchical Translation and Rotation (.htr) file 
[Header]	
#Header keywords are followed by a single value 
FileType HTR		#Single word string
DataType HTRS		#Translation followed by rotation and scale data
FileVersion 1		#integer
NumSegments 84		#integer
NumFrames 2		#integer
DataFrameRate 30		#integer, data frame rate in this file
EulerRotationOrder ZYX
CalibrationUnits mm
RotationUnits Degrees
GlobalAxisofGravity Y
BoneLengthAxis Y
ScaleFactor 1.00
[SegmentNames&Hierarchy]
#CHILD	PARENT
MASTER GLOBAL
root MASTER
chest root
L_mid_tent01 root
R_mid_tent01 root
spine01 root
Bip01_Neck chest
L_humerus chest
R_humerus chest
weapon_bone chest
Bip01_Head Bip01_Neck
eye_left_bone Bip01_Head
eye_right_bone Bip01_Head
L_forearm L_humerus
L_front_hand L_forearm
L_weapon_bone L_forearm
L_front_hand01_01 L_front_hand
L_front_hand02_01 L_front_hand
L_front_hand03_01 L_front_hand
L_front_hand01_02 L_front_hand01_01
L_front_hand02_02 L_front_hand02_01
L_front_hand03_02 L_front_hand03_01
R_forearm R_humerus
R_front_hand R_forearm
R_weapon_bone R_forearm
R_front_hand01_01 R_front_hand
R_front_hand02_01 R_front_hand
R_front_hand03_01 R_front_hand
R_front_hand01_02 R_front_hand01_01
R_front_hand02_02 R_front_hand02_01
R_front_hand03_02 R_front_hand03_01
null_rope01_connect L_mid_tent01
Rope1_Seg01 null_rope01_connect
Rope1_Seg02 Rope1_Seg01
Rope1_Seg03 Rope1_Seg02
Rope1_Seg04 Rope1_Seg03
Rope1_Seg05 Rope1_Seg04
Rope1_Seg06 Rope1_Seg05
Rope1_Seg07 Rope1_Seg06
Rope1_Seg09 Rope1_Seg07
L_mid_hand01 Rope1_Seg09
L_mid_hand02 Rope1_Seg09
L_mid_hand03 Rope1_Seg09
null_rope02_connect R_mid_tent01
Rope2_Seg01 null_rope02_connect
Rope2_Seg02 Rope2_Seg01
Rope2_Seg03 Rope2_Seg02
Rope2_Seg04 Rope2_Seg03
Rope2_Seg05 Rope2_Seg04
Rope2_Seg06 Rope2_Seg05
Rope2_Seg07 Rope2_Seg06
Rope2_Seg09 Rope2_Seg07
R_mid_hand01 Rope2_Seg09
R_mid_hand02 Rope2_Seg09
R_mid_hand03 Rope2_Seg09
spine02 spine01
spine03 spine02
pelvis spine03
null_rope03_connect pelvis
null_rope04_connect pelvis
Rope3_Seg01 null_rope03_connect
Rope3_Seg02 Rope3_Seg01
Rope3_Seg03 Rope3_Seg02
Rope3_Seg04 Rope3_Seg03
Rope3_Seg05 Rope3_Seg04
Rope3_Seg06 Rope3_Seg05
Rope3_Seg07 Rope3_Seg06
Rope3_Seg08 Rope3_Seg07
Rope3_Seg09 Rope3_Seg08
R_rear_hand01 Rope3_Seg09
R_rear_hand02 Rope3_Seg09
R_rear_hand03 Rope3_Seg09
Rope4_Seg01 null_rope04_connect
Rope4_Seg02 Rope4_Seg01
Rope4_Seg03 Rope4_Seg02
Rope4_Seg04 Rope4_Seg03
Rope4_Seg05 Rope4_Seg04
Rope4_Seg06 Rope4_Seg05
Rope4_Seg07 Rope4_Seg06
Rope4_Seg08 Rope4_Seg07
Rope4_Seg09 Rope4_Seg08
L_rear_hand01 Rope4_Seg09
L_rear_hand02 Rope4_Seg09
L_rear_hand03 Rope4_Seg09
[BasePosition]
#SegmentName Tx, Ty, Tz, Rx, Ry, Rz, BoneLength
MASTER 0.000000 0.000000 0.000000 -90.000000 0.000000 0.000000 10.000000 
root 0.000000 0.000000 0.000000 0.000000 0.000000 0.000000 10.000000 
chest 0.000000 0.000000 0.000000 0.000000 0.000000 0.000000 10.000000 
L_mid_tent01 0.000000 0.000000 0.000000 0.000000 0.000000 0.000000 10.000000 
R_mid_tent01 0.000000 0.000000 0.000000 0.000000 0.000000 0.000000 10.000000 
spine01 0.000000 0.000000 0.000000 0.000000 0.000000 0.000000 10.000000 
Bip01_Neck 0.000000 0.000000 0.000000 0.000000 0.000000 0.000000 10.000000 
L_humerus 0.000000 0.000000 0.000000 0.000000 0.000000 0.000000 10.000000 
R_humerus 0.000000 0.000000 0.000000 0.000000 0.000000 0.000000 10.000000 
weapon_bone 0.000000 0.000000 0.000000 0.000000 0.000000 0.000000 10.000000 
Bip01_Head 0.000000 0.000000 0.000000 0.000000 0.000000 0.000000 10.000000 
eye_left_bone 0.000000 0.000000 0.000000 0.000000 0.000000 0.000000 10.000000 
eye_right_bone 0.000000 0.000000 0.000000 0.000000 0.000000 0.000000 10.000000 
L_forearm 0.000000 0.000000 0.000000 0.000000 0.000000 0.000000 10.000000 
L_front_hand 0.000000 0.000000 0.000000 0.000000 0.000000 0.000000 10.000000 
L_weapon_bone 0.000000 0.000000 0.000000 0.000000 0.000000 0.000000 10.000000 
L_front_hand01_01 0.000000 0.000000 0.000000 0.000000 0.000000 0.000000 10.000000 
L_front_hand02_01 0.000000 0.000000 0.000000 0.000000 0.000000 0.000000 10.000000 
L_front_hand03_01 0.000000 0.000000 0.000000 0.000000 0.000000 0.000000 10.000000 
L_front_hand01_02 0.000000 0.000000 0.000000 0.000000 0.000000 0.000000 10.000000 
L_front_hand02_02 0.000000 0.000000 0.000000 0.000000 0.000000 0.000000 10.000000 
L_front_hand03_02 0.000000 0.000000 0.000000 0.000000 0.000000 0.000000 10.000000 
R_forearm 0.000000 0.000000 0.000000 0.000000 0.000000 0.000000 10.000000 
R_front_hand 0.000000 0.000000 0.000000 0.000000 0.000000 0.000000 10.000000 
R_weapon_bone 0.000000 0.000000 0.000000 0.000000 0.000000 0.000000 10.000000 
R_front_hand01_01 0.000000 0.000000 0.000000 0.000000 0.000000 0.000000 10.000000 
R_front_hand02_01 0.000000 0.000000 0.000000 0.000000 0.000000 0.000000 10.000000 
R_front_hand03_01 0.000000 0.000000 0.000000 0.000000 0.000000 0.000000 10.000000 
R_front_hand01_02 0.000000 0.000000 0.000000 0.000000 0.000000 0.000000 10.000000 
R_front_hand02_02 0.000000 0.000000 0.000000 0.000000 0.000000 0.000000 10.000000 
R_front_hand03_02 0.000000 0.000000 0.000000 0.000000 0.000000 0.000000 10.000000 
null_rope01_connect 0.000000 0.000000 0.000000 0.000000 0.000000 0.000000 10.000000 
Rope1_Seg01 0.000000 0.000000 0.000000 0.000000 0.000000 0.000000 10.000000 
Rope1_Seg02 0.000000 0.000000 0.000000 0.000000 0.000000 0.000000 10.000000 
Rope1_Seg03 0.000000 0.000000 0.000000 0.000000 0.000000 0.000000 10.000000 
Rope1_Seg04 0.000000 0.000000 0.000000 0.000000 0.000000 0.000000 10.000000 
Rope1_Seg05 0.000000 0.000000 0.000000 0.000000 0.000000 0.000000 10.000000 
Rope1_Seg06 0.000000 0.000000 0.000000 0.000000 0.000000 0.000000 10.000000 
Rope1_Seg07 0.000000 0.000000 0.000000 0.000000 0.000000 0.000000 10.000000 
Rope1_Seg09 0.000000 0.000000 0.000000 0.000000 0.000000 0.000000 10.000000 
L_mid_hand01 0.000000 0.000000 0.000000 0.000000 0.000000 0.000000 10.000000 
L_mid_hand02 0.000000 0.000000 0.000000 0.000000 0.000000 0.000000 10.000000 
L_mid_hand03 0.000000 0.000000 0.000000 0.000000 0.000000 0.000000 10.000000 
null_rope02_connect 0.000000 0.000000 0.000000 0.000000 0.000000 0.000000 10.000000 
Rope2_Seg01 0.000000 0.000000 0.000000 0.000000 0.000000 0.000000 10.000000 
Rope2_Seg02 0.000000 0.000000 0.000000 0.000000 0.000000 0.000000 10.000000 
Rope2_Seg03 0.000000 0.000000 0.000000 0.000000 0.000000 0.000000 10.000000 
Rope2_Seg04 0.000000 0.000000 0.000000 0.000000 0.000000 0.000000 10.000000 
Rope2_Seg05 0.000000 0.000000 0.000000 0.000000 0.000000 0.000000 10.000000 
Rope2_Seg06 0.000000 0.000000 0.000000 0.000000 0.000000 0.000000 10.000000 
Rope2_Seg07 0.000000 0.000000 0.000000 0.000000 0.000000 0.000000 10.000000 
Rope2_Seg09 0.000000 0.000000 0.000000 0.000000 0.000000 0.000000 10.000000 
R_mid_hand01 0.000000 0.000000 0.000000 0.000000 0.000000 0.000000 10.000000 
R_mid_hand02 0.000000 0.000000 0.000000 0.000000 0.000000 0.000000 10.000000 
R_mid_hand03 0.000000 0.000000 0.000000 0.000000 0.000000 0.000000 10.000000 
spine02 0.000000 0.000000 0.000000 0.000000 0.000000 0.000000 10.000000 
spine03 0.000000 0.000000 0.000000 0.000000 0.000000 0.000000 10.000000 
pelvis 0.000000 0.000000 0.000000 0.000000 0.000000 0.000000 10.000000 
null_rope03_connect 0.000000 0.000000 0.000000 0.000000 0.000000 0.000000 10.000000 
null_rope04_connect 0.000000 0.000000 0.000000 0.000000 0.000000 0.000000 10.000000 
Rope3_Seg01 0.000000 0.000000 0.000000 0.000000 0.000000 0.000000 10.000000 
Rope3_Seg02 0.000000 0.000000 0.000000 0.000000 0.000000 0.000000 10.000000 
Rope3_Seg03 0.000000 0.000000 0.000000 0.000000 0.000000 0.000000 10.000000 
Rope3_Seg04 0.000000 0.000000 0.000000 0.000000 0.000000 0.000000 10.000000 
Rope3_Seg05 0.000000 0.000000 0.000000 0.000000 0.000000 0.000000 10.000000 
Rope3_Seg06 0.000000 0.000000 0.000000 0.000000 0.000000 0.000000 10.000000 
Rope3_Seg07 0.000000 0.000000 0.000000 0.000000 0.000000 0.000000 10.000000 
Rope3_Seg08 0.000000 0.000000 0.000000 0.000000 0.000000 0.000000 10.000000 
Rope3_Seg09 0.000000 0.000000 0.000000 0.000000 0.000000 0.000000 10.000000 
R_rear_hand01 0.000000 0.000000 0.000000 0.000000 0.000000 0.000000 10.000000 
R_rear_hand02 0.000000 0.000000 0.000000 0.000000 0.000000 0.000000 10.000000 
R_rear_hand03 0.000000 0.000000 0.000000 0.000000 0.000000 0.000000 10.000000 
Rope4_Seg01 0.000000 0.000000 0.000000 0.000000 0.000000 0.000000 10.000000 
Rope4_Seg02 0.000000 0.000000 0.000000 0.000000 0.000000 0.000000 10.000000 
Rope4_Seg03 0.000000 0.000000 0.000000 0.000000 0.000000 0.000000 10.000000 
Rope4_Seg04 0.000000 0.000000 0.000000 0.000000 0.000000 0.000000 10.000000 
Rope4_Seg05 0.000000 0.000000 0.000000 0.000000 0.000000 0.000000 10.000000 
Rope4_Seg06 0.000000 0.000000 0.000000 0.000000 0.000000 0.000000 10.000000 
Rope4_Seg07 0.000000 0.000000 0.000000 0.000000 0.000000 0.000000 10.000000 
Rope4_Seg08 0.000000 0.000000 0.000000 0.000000 0.000000 0.000000 10.000000 
Rope4_Seg09 0.000000 0.000000 0.000000 0.000000 0.000000 0.000000 10.000000 
L_rear_hand01 0.000000 0.000000 0.000000 0.000000 0.000000 0.000000 10.000000 
L_rear_hand02 0.000000 0.000000 0.000000 0.000000 0.000000 0.000000 10.000000 
L_rear_hand03 0.000000 0.000000 0.000000 0.000000 0.000000 0.000000 10.000000 
#Beginning of Data. Separated by tabs
#Fr	Tx	Ty	Tz	Rx	Ry	Rz	SF
[MASTER]
22 0.000000 0.000000 0.000000 0.001660 0.001660 0.001660 0.000000
23 0.000000 0.000000 0.000000 0.001660 0.001660 0.001660 0.000000
[root]
22 -16.502304 9.364140 1448.317383 -91.728889 -11.584499 -89.471611 1448.441650
23 -16.502304 9.364140 1448.317383 -91.728897 -11.584496 -89.471619 1448.441650
[chest]
22 -84.512650 -34.090519 0.000000 -2.144813 0.313244 176.732239 91.129311
23 -84.512650 -34.090519 0.000000 -2.144812 0.313244 176.732239 91.129311
[L_mid_tent01]
22 27.299511 22.177458 -249.918259 -28.266106 32.791584 -5.365355 252.381134
23 27.299511 22.177458 -249.918259 -28.266106 32.791584 -5.365355 252.381134
[R_mid_tent01]
22 23.228794 24.509907 226.238495 -156.204071 -32.814346 0.416457 228.744751
23 23.228794 24.509907 226.238495 -156.204071 -32.814346 0.416457 228.744751
[spine01]
22 -0.361383 -0.195265 0.000000 -0.000001 -0.000007 22.052340 0.410763
23 -0.361383 -0.195265 0.000000 -0.000001 -0.000007 22.052340 0.410763
[Bip01_Neck]
22 165.484543 71.581718 0.000119 175.896118 1.177290 24.871183 180.302734
23 165.484543 71.581718 0.000119 175.896118 1.177290 24.871183 180.302734
[L_humerus]
22 -13.983130 -135.272980 -120.471481 139.909653 88.317627 -130.290085 181.680161
23 -13.983130 -135.272980 -120.471481 139.909836 88.317749 -130.290085 181.680161
[R_humerus]
22 -13.983309 -135.273102 125.287651 133.576981 -87.684464 -45.901276 184.909012
23 -13.983309 -135.273102 125.287651 133.576981 -87.684464 -45.901276 184.909012
[weapon_bone]
22 235.964890 -300.705902 0.000000 0.000000 -89.951546 -128.212341 382.234833
23 235.964890 -300.705902 0.000000 0.000000 -89.951546 -128.212341 382.234833
[Bip01_Head]
22 193.865784 99.525146 7.890730 1.727521 4.534425 -43.429157 218.062973
23 193.865784 99.525146 7.890730 1.727521 4.534425 -43.429153 218.062973
[eye_left_bone]
22 -24.626970 125.451866 -64.772606 0.000000 -90.000000 -99.840431 143.318359
23 -24.626970 125.451866 -64.772606 0.000000 -90.000000 -99.840431 143.318359
[eye_right_bone]
22 -24.626970 125.451866 64.327362 0.000000 -89.965736 80.156380 143.117676
23 -24.626970 125.451866 64.327362 0.000000 -89.965736 80.156380 143.117676
[L_forearm]
22 322.776093 0.000000 -0.000119 0.000248 -0.002334 -102.125244 322.776093
23 322.776093 0.000000 -0.000119 0.000248 -0.002334 -102.125244 322.776093
[L_front_hand]
22 241.149185 -0.042021 -3.300071 -179.659958 -2.242151 -0.019832 241.171753
23 241.149185 -0.042021 -3.300071 -179.659958 -2.242151 -0.019832 241.171753
[L_weapon_bone]
22 156.183838 0.000000 0.000000 0.000014 0.000007 0.000001 156.183838
23 156.183838 0.000000 0.000000 0.000014 0.000007 0.000001 156.183838
[L_front_hand01_01]
22 86.095154 20.947098 -0.655860 -0.366594 -0.477154 75.385574 88.609184
23 86.095154 20.947098 -0.655860 -0.366594 -0.477154 75.385574 88.609184
[L_front_hand02_01]
22 86.935165 -11.437475 24.513514 154.399796 -59.883835 -61.369587 91.046425
23 86.935165 -11.437475 24.513514 154.399796 -59.883835 -61.369587 91.046425
[L_front_hand03_01]
22 86.637497 -14.123976 -20.424902 -153.913849 58.118122 -62.702866 90.126129
23 86.637497 -14.123976 -20.424902 -153.913849 58.118122 -62.702866 90.126129
[L_front_hand01_02]
22 71.020905 -0.000179 0.000030 0.000334 -0.002323 -106.379684 71.020905
23 71.020905 -0.000179 0.000030 0.000334 -0.002323 -106.379684 71.020905
[L_front_hand02_02]
22 71.020927 -0.000119 0.000060 0.000334 -0.002323 -106.379684 71.020927
23 71.020927 -0.000119 0.000060 0.000334 -0.002323 -106.379684 71.020927
[L_front_hand03_02]
22 71.020905 -0.000060 0.000060 0.000334 -0.002323 -106.379684 71.020905
23 71.020905 -0.000060 0.000060 0.000334 -0.002323 -106.379684 71.020905
[R_forearm]
22 322.776428 -0.000060 0.000030 0.208463 0.026596 -98.191139 322.776428
23 322.776428 -0.000060 0.000030 0.208463 0.026596 -98.191139 322.776428
[R_front_hand]
22 238.847015 -0.006795 2.210259 -0.270529 1.703932 2.322530 238.857239
23 238.847015 -0.006795 2.210259 -0.270529 1.703932 2.322530 238.857239
[R_weapon_bone]
22 155.664093 0.002503 -0.000030 0.003487 0.001180 -90.988930 155.664078
23 155.664093 0.002503 -0.000030 0.003487 0.001180 -90.988930 155.664078
[R_front_hand01_01]
22 87.624611 14.231146 22.918642 -154.633484 -59.950619 61.746037 91.683487
23 87.624611 14.231146 22.918642 -154.633514 -59.950634 61.746063 91.683487
[R_front_hand02_01]
22 89.356956 14.367283 -19.491137 154.602661 58.302849 63.744389 92.579636
23 89.356956 14.367283 -19.491137 154.602661 58.302849 63.744389 92.579636
[R_front_hand03_01]
22 87.286232 -22.307278 -0.143439 0.162155 -0.423168 -75.767921 90.091743
23 87.286232 -22.307278 -0.143439 0.162155 -0.423168 -75.767921 90.091743
[R_front_hand01_02]
22 71.020905 0.000060 0.000119 0.002323 -0.000334 106.381714 71.020905
23 71.020905 0.000060 0.000119 0.002323 -0.000334 106.381714 71.020905
[R_front_hand02_02]
22 71.020844 -0.000030 -0.000119 0.002323 -0.000334 106.381714 71.020836
23 71.020844 -0.000030 -0.000119 0.002323 -0.000334 106.381714 71.020836
[R_front_hand03_02]
22 71.020905 0.000000 0.000030 0.002323 -0.000334 106.381714 71.020905
23 71.020905 0.000000 0.000030 0.002323 -0.000334 106.381714 71.020905
[null_rope01_connect]
22 328.732483 0.000000 -0.000238 -119.541275 -47.109665 -141.366821 328.732483
23 328.732483 0.000000 -0.000238 -119.541275 -47.109665 -141.366821 328.732483
[Rope1_Seg01]
22 0.000000 0.000000 0.000000 42.323467 8.159604 -118.236229 0.000000
23 0.000000 0.000000 0.000000 39.093521 5.694373 -116.801834 0.000000
[Rope1_Seg02]
22 139.999863 -0.000179 0.000000 -4.680912 -0.440273 2.876016 139.999863
23 139.999863 -0.000179 0.000000 -3.092779 -1.021468 2.983327 139.999863
[Rope1_Seg03]
22 139.999924 0.000060 -0.000060 -4.420309 -0.849021 3.618456 139.999924
23 139.999924 0.000060 -0.000060 -3.012389 -1.588588 3.908447 139.999924
[Rope1_Seg04]
22 139.999924 -0.000060 -0.000119 -5.025804 -1.071843 4.891903 139.999924
23 139.999924 -0.000060 -0.000119 -3.805173 -3.592384 7.512820 139.999924
[Rope1_Seg05]
22 139.999832 0.000119 -0.000060 -2.569896 -3.631117 6.381939 139.999832
23 139.999832 0.000119 -0.000060 -0.462802 0.136458 0.322573 139.999832
[Rope1_Seg06]
22 139.999954 0.000119 -0.000060 0.104883 -1.830301 1.899443 139.999954
23 139.999954 0.000119 -0.000060 0.336291 0.950468 -1.405177 139.999954
[Rope1_Seg07]
22 139.999985 0.000060 0.000000 -0.185150 -0.857049 1.170278 139.999985
23 139.999985 0.000060 0.000000 -0.023170 0.125266 -0.112120 139.999985
[Rope1_Seg09]
22 121.602913 0.000119 -0.000089 -89.793175 -1.359789 0.847147 121.602913
23 121.602913 0.000119 -0.000089 -89.793175 -1.359789 0.847147 121.602913
[L_mid_hand01]
22 103.859421 1.038730 8.195221 106.855484 -31.239275 -9.461397 104.187431
23 103.859421 1.038730 8.195221 106.855484 -31.239275 -9.461397 104.187431
[L_mid_hand02]
22 105.572853 -4.139662 -10.864139 -142.331345 25.752670 -28.774628 106.211075
23 105.572853 -4.139662 -10.864139 -142.331345 25.752670 -28.774628 106.211075
[L_mid_hand03]
22 104.641464 17.579376 -3.913581 -16.122810 9.734291 34.223598 106.179977
23 104.641464 17.579376 -3.913581 -16.122810 9.734291 34.223598 106.179977
[null_rope02_connect]
22 328.732849 0.000179 -0.000119 -116.029831 50.874489 -29.531246 328.732849
23 328.732849 0.000179 -0.000119 -116.029846 50.874496 -29.531256 328.732849
[Rope2_Seg01]
22 -0.000038 0.000153 0.000000 89.406593 13.508291 -55.564182 0.000157
23 -0.000038 0.000153 0.000000 74.878281 9.026190 -55.532520 0.000157
[Rope2_Seg02]
22 139.999741 -0.000060 -0.000119 -20.425501 -1.483950 8.296652 139.999756
23 139.999741 -0.000060 -0.000119 -15.248681 -2.254554 7.454906 139.999756
[Rope2_Seg03]
22 140.000107 0.000030 0.000000 -16.101984 0.629199 6.975074 140.000107
23 140.000107 0.000030 0.000000 -17.328398 1.008981 8.405938 140.000107
[Rope2_Seg04]
22 139.999802 0.000000 -0.000060 -3.010181 -3.458987 3.181521 139.999802
23 139.999802 0.000000 -0.000060 1.857324 -3.837156 0.592745 139.999802
[Rope2_Seg05]
22 139.999985 -0.000060 0.000119 16.552975 -11.629217 -6.946589 139.999985
23 139.999985 -0.000060 0.000119 22.045452 -8.600682 -11.616920 139.999985
[Rope2_Seg06]
22 139.999893 -0.000030 -0.000119 7.757213 -9.913168 -3.239712 139.999893
23 139.999893 -0.000030 -0.000119 9.924977 -7.881432 -5.213047 139.999893
[Rope2_Seg07]
22 139.999893 0.000060 -0.000060 2.039148 -4.591880 -0.446441 139.999893
23 139.999893 0.000060 -0.000060 3.069329 -3.909455 -1.419938 139.999893
[Rope2_Seg09]
22 121.338966 0.000089 -0.000060 33.793236 -1.359788 -0.847141 121.338966
23 121.338966 0.000089 -0.000060 33.793236 -1.359788 -0.847141 121.338966
[R_mid_hand01]
22 104.680779 11.144459 -10.335981 -41.523792 25.424656 28.595957 105.778534
23 104.680779 11.144459 -10.335981 -41.523792 25.424656 28.595957 105.778534
[R_mid_hand02]
22 104.070427 2.443552 8.231699 72.847389 -32.746803 10.013901 104.424065
23 104.070427 2.443552 8.231699 72.847389 -32.746803 10.013901 104.424065
[R_mid_hand03]
22 106.028137 -11.221827 -5.996406 -167.901306 10.259192 -37.009720 106.788818
23 106.028137 -11.221827 -5.996406 -167.901306 10.259192 -37.009720 106.788818
[spine02]
22 129.756927 0.001550 0.000119 0.360061 -4.044797 -12.915058 129.756927
23 129.756927 0.001550 0.000119 0.360061 -4.044797 -12.915058 129.756927
[spine03]
22 78.613846 0.087372 -4.898873 1.896495 3.831288 16.473045 78.766380
23 78.613846 0.087372 -4.898873 1.896495 3.831288 16.473045 78.766380
[pelvis]
22 169.435242 0.051022 0.000000 -0.060465 -0.180225 14.087930 169.435257
23 169.435242 0.051022 0.000000 -0.060465 -0.180225 14.087930 169.435257
[null_rope03_connect]
22 -1.257226 -2.466202 137.391083 156.329987 -89.381348 -94.430771 137.418976
23 -1.257226 -2.466202 137.391083 156.329987 -89.381348 -94.430771 137.418976
[null_rope04_connect]
22 -1.259640 -2.480268 -137.844437 156.329987 -89.381348 -94.430771 137.872513
23 -1.259640 -2.480268 -137.844437 156.329987 -89.381348 -94.430771 137.872513
[Rope3_Seg01]
22 0.000010 0.000038 -0.000114 -135.180588 30.382328 -82.865135 0.000121
23 0.000010 0.000038 -0.000114 -132.011322 26.720592 -77.086639 0.000121
[Rope3_Seg02]
22 139.999924 -0.000119 0.000060 0.829731 1.819526 -5.542175 139.999924
23 139.999924 -0.000119 0.000060 0.446913 3.107192 -2.192949 139.999924
[Rope3_Seg03]
22 139.999924 -0.000119 0.000119 0.490759 1.532462 -4.885013 139.999924
23 139.999924 -0.000119 0.000119 0.380291 2.716847 -1.349802 139.999924
[Rope3_Seg04]
22 139.999924 0.000119 0.000000 0.191639 1.409451 -4.270359 139.999924
23 139.999924 0.000119 0.000000 0.339919 3.180958 0.421763 139.999924
[Rope3_Seg05]
22 139.999924 -0.000238 0.000060 0.175583 1.017011 -3.820657 139.999924
23 139.999924 -0.000238 0.000060 0.421351 0.360615 -3.424927 139.999924
[Rope3_Seg06]
22 139.999893 -0.000119 -0.000060 0.364358 0.525398 -2.900153 139.999893
23 139.999893 -0.000119 -0.000060 0.609707 -1.873310 -5.981345 139.999893
[Rope3_Seg07]
22 139.999771 0.000060 -0.000119 0.419646 0.390521 -2.178126 139.999771
23 139.999771 0.000060 -0.000119 0.510208 -1.207404 -4.109781 139.999771
[Rope3_Seg08]
22 139.999985 -0.000060 0.000000 0.452935 0.289479 -1.490856 139.999985
23 139.999985 -0.000060 0.000000 0.472413 -0.533002 -2.300481 139.999985
[Rope3_Seg09]
22 90.185997 -0.000179 -0.000060 89.793228 -1.359877 -0.847183 90.185997
23 90.185997 -0.000179 -0.000060 89.793228 -1.359877 -0.847183 90.185997
[R_rear_hand01]
22 103.366196 -6.073594 -10.757982 -161.551193 16.666374 -30.088671 104.101845
23 103.366196 -6.073594 -10.757982 -161.551193 16.666374 -30.088671 104.101845
[R_rear_hand02]
22 100.509819 12.039542 -7.992327 -34.280552 19.289745 28.875523 101.543350
23 100.509819 12.039542 -7.992327 -34.280552 19.289745 28.875523 101.543350
[R_rear_hand03]
22 101.539970 5.215704 5.435467 83.366440 -30.933914 7.284830 101.819031
23 101.539970 5.215704 5.435467 83.366440 -30.933914 7.284830 101.819031
[Rope4_Seg01]
22 0.000010 0.000038 -0.000114 50.910595 33.558937 -99.037613 0.000121
23 0.000010 0.000038 -0.000114 52.638577 32.369946 -95.088272 0.000121
[Rope4_Seg02]
22 139.999985 0.000060 0.000119 -1.305324 -3.699236 5.038519 139.999985
23 139.999985 0.000060 0.000119 -1.795019 -5.771491 4.862850 139.999985
[Rope4_Seg03]
22 139.999924 0.000000 -0.000238 -1.646575 -5.320037 6.647493 139.999924
23 139.999924 0.000000 -0.000238 -1.958973 -9.133648 6.373805 139.999924
[Rope4_Seg04]
22 139.999985 0.000000 0.000119 -2.517757 -16.907862 10.737534 139.999985
23 139.999985 0.000000 0.000119 -1.070433 -22.261147 8.900691 139.999985
[Rope4_Seg05]
22 139.999802 -0.000060 -0.000119 0.436194 7.984418 7.851589 139.999802
23 139.999802 -0.000060 -0.000119 1.084080 15.467202 7.481138 139.999802
[Rope4_Seg06]
22 139.999924 0.000000 0.000060 2.630420 18.212858 1.179919 139.999924
23 139.999924 0.000000 0.000060 2.714682 19.980169 2.795846 139.999924
[Rope4_Seg07]
22 139.999802 0.000000 0.000000 1.008637 5.572936 1.155012 139.999802
23 139.999802 0.000000 0.000000 1.038200 6.114479 1.508378 139.999802
[Rope4_Seg08]
22 139.999924 0.000000 0.000119 -0.922200 3.009132 0.615676 139.999924
23 139.999924 0.000000 0.000119 -0.861490 3.361264 0.768072 139.999924
[Rope4_Seg09]
22 90.185791 0.000060 0.000060 -135.617828 2.228885 0.850567 90.185791
23 90.185791 0.000060 0.000060 -135.617828 2.228885 0.850567 90.185791
[L_rear_hand01]
22 101.696655 -8.392275 -7.654577 -34.454281 -18.946800 151.655121 102.329041
23 101.696655 -8.392275 -7.654577 -34.454281 -18.946800 151.655121 102.329041
[L_rear_hand02]
22 102.726799 -1.568258 5.773216 83.407906 30.330435 172.796509 102.900848
23 102.726799 -1.568258 5.773216 83.407906 30.330435 172.796509 102.900848
[L_rear_hand03]
22 104.552910 9.721220 -10.420293 -161.379868 -16.473232 -150.512238 105.519653
23 104.552910 9.721220 -10.420293 -161.379868 -16.473232 -150.512238 105.519653
